<?xml version="1.0" encoding="UTF-8"?>
<svg id="Calque_2" data-name="Calque 2" xmlns="http://www.w3.org/2000/svg" viewBox="0 0 577.14 204.28">
  <defs>
    <style>
      .cls-1 {
        fill: #fff;
      }

      .cls-2 {
        fill: red;
      }
    </style>
  </defs>
  <g id="Layer_1" data-name="Layer 1">
    <rect class="cls-2" width="577.14" height="204.28"/>
    <g>
      <path class="cls-1" d="m210.35,71.7h42.44v11.62h-30.31v15.66h24.76v11.62h-24.76v24.76h-12.12v-63.66Z"/>
      <path class="cls-1" d="m261.88,71.7h12.12v63.66h-12.12v-63.66Z"/>
      <path class="cls-1" d="m287.14,71.7h10.61l28.29,41.43v-41.43h12.12v63.66h-10.61l-28.29-41.43v41.43h-12.13v-63.66Z"/>
      <path class="cls-1" d="m351.3,71.7h12.13v63.66h-12.13v-63.66Z"/>
      <path class="cls-1" d="m385.66,115.15c0,5.66,4.04,9.6,10.61,9.6,7.17,0,10.61-3.54,10.61-7.58,0-11.62-32.84-5.56-32.84-27.69,0-9.7,8.59-18.29,22.23-18.29,12.63,0,21.22,8.59,21.22,20.21h-11.62c0-5.66-3.54-9.09-9.6-9.09s-9.6,3.54-9.6,7.07c0,11.01,32.84,5.15,32.84,28.29,0,9.09-9.2,18.19-23.24,18.19s-22.74-8.59-22.74-20.71h12.13Z"/>
      <path class="cls-1" d="m429.11,71.7h12.13v25.26h26.78v-25.26h12.12v63.66h-12.12v-26.78h-26.78v26.78h-12.13v-63.66Z"/>
    </g>
    <g>
      <circle class="cls-2" cx="104.75" cy="103.53" r="56.15"/>
      <path class="cls-1" d="m129.67,104.45l8.6-14.9-4.07-7h-17.21l10-17.26c-2.73-1.59-5.62-2.89-8.63-3.86l-13.61,23.4,4.11,7.06h17.21l-8.6,14.91,4.07,7.07h26.32c.74-3.09,1.15-6.25,1.21-9.42h-19.4Z"/>
      <path class="cls-1" d="m100.67,140.54h8.19l8.62-14.9,9.38,16.25c2.74-1.58,5.3-3.44,7.65-5.56l-13-22.48h-8.15l-8.62,14.91-8.6-14.87h-8.16l-13,22.48c2.34,2.12,4.91,3.99,7.65,5.56l9.39-16.26,8.65,14.87Z"/>
      <path class="cls-1" d="m92.05,106.8l-8.59-14.91h17.2l4.09-7.06-13.57-23.47c-3.01.97-5.9,2.27-8.63,3.86l10,17.26h-17.23l-4.08,7,8.6,14.92h-19.37c.06,3.2.47,6.38,1.21,9.49h26.3l4.07-7.09Z"/>
    </g>
  </g>
</svg>